A hard core Interpol Agent is assigned to an Eastern European task force to target gun trafficking and dope running throughout the Balkans. While investigating a Russian gun dealer, his team is caught in a bloody street war between a Gypsy gang and the Russians, leaving one task force member dead. Fueled with vengeance, he leads us on an action packed thrill ride while avenging his friend's death.
 
http://www.imdb.com/title/tt1528718/

Subtitles (srt) : Dutch.

Covers included.

Een sterke Interpol-agent (Steven Seagal) wordt toevertrouwd aan een Oost-Europees team dat strijdt tegen wapen- en drugssmokkel in de Balkan. Terwijl hij bezig is met het observeren van een Russische wapendealer, raakt zijn team gevangen in een vuurgevecht tussen een groep zigeuners en de Russen. Hierbij komt één van zijn teamleden om. Gevuld met wraak, besluit hij de dood van zijn vriend te wreken.
 
http://www.moviemeter.nl/film/61471

Ondertitels (srt) : Nederlands.

Hoesjes bijgevoegd.

General
Complete name                    : Born To Raise Hell-AC3-XviD-BRRip[Eng]2010 2Lions-Team\Born To Raise Hell-AC3-XviD-BRRip[Eng]2010 2Lions-Team.avi
Format                           : AVI
Format/Info                      : Audio Video Interleave
File size                        : 1.36 GiB
Duration                         : 1h 36mn
Overall bit rate                 : 2 029 Kbps
Writing application              : VirtualDubMod 1.5.4.1 (build 2178/release)
Writing library                  : VirtualDubMod build 2178/release
Source                           : Born To Raise Hell 2010 720p BluRay x264-AVCHD

Video
ID                               : 0
Format                           : MPEG-4 Visual
Format profile                   : Simple@L3
Format settings, BVOP            : No
Format settings, QPel            : No
Format settings, GMC             : No warppoints
Format settings, Matrix          : Default (H.263)
Codec ID                         : XVID
Codec ID/Hint                    : XviD
Duration                         : 1h 36mn
Bit rate                         : 1 572 Kbps
Width                            : 720 pixels
Height                           : 400 pixels
Display aspect ratio             : 16:9
Frame rate                       : 23.976 fps
Color space                      : YUV
Chroma subsampling               : 4:2:0
Bit depth                        : 8 bits
Scan type                        : Progressive
Bits/(Pixel*Frame)               : 0.228
Stream size                      : 1.06 GiB (77%)
Writing library                  : XviD 1.1.2 (UTC 2006-11-01)

Audio
ID                               : 1
Format                           : AC-3
Format/Info                      : Audio Coding 3
Mode extension                   : CM (complete main)
Codec ID                         : 2000
Duration                         : 1h 36mn
Bit rate mode                    : Constant
Bit rate                         : 448 Kbps
Channel(s)                       : 6 channels
Channel positions                : Front: L C R, Side: L R, LFE
Sampling rate                    : 48.0 KHz
Bit depth                        : 16 bits
Stream size                      : 308 MiB (22%)
Alignment                        : Split accross interleaves
Interleave, duration             : 42 ms (1.00 video frame)
Interleave, preload duration     : 500 ms

Thanks to Simply ReleaseS for the source, and Dutch subs!
 

Brought to you by 
2Lions Team

meer zien??
                   
Kom dan eens kijken op ons NIEUWE forum 
            
http://www.2lions-site.nl/

2Lions the site to be for all your Dutch MOVIES and more

******************************************

DON T HIT AND RUN Niet gelijk afhaken als de FILM binnen is blijf seeden. 

Don`t quit after you finished the download, but keep seeding

There are fake torrents from uploaders who use our team name.
Those are not ours, or members from our team.
We 2Lions-Team are not responsible for the fake posts on our name

Wij 2Lions-Team zijn niet verantwoordelijk voor die zieke FAKE posten die op onze naam worden gedaan

Please check our site !!!

to the fakers , get a life !!!